<svg width="2033" height="750" viewBox="0 0 2033 750" fill="none" xmlns="http://www.w3.org/2000/svg">
<path fill-rule="evenodd" clip-rule="evenodd" d="M465.509 249.765C455.199 248.191 444.639 247.374 433.888 247.374C319.175 247.374 226.181 340.368 226.181 455.081C226.181 470.986 227.969 486.473 231.354 501.353C131.648 486.124 55.2679 400 55.2679 296.037C55.2679 181.324 148.262 88.3301 262.975 88.3301C361.784 88.3301 444.478 157.325 465.509 249.765Z" fill="#46D5F1"/>
<path fill-rule="evenodd" clip-rule="evenodd" d="M262.547 501.351C377.261 501.351 470.254 408.358 470.254 293.644C470.254 277.739 468.467 262.252 465.081 247.372C564.788 262.602 641.168 348.725 641.168 452.688C641.168 567.401 548.174 660.395 433.461 660.395C334.652 660.395 251.958 591.401 230.926 498.96C241.237 500.535 251.797 501.351 262.547 501.351Z" fill="#1E50D2"/>
<path fill-rule="evenodd" clip-rule="evenodd" d="M262.976 503.746C377.69 503.746 470.684 410.752 470.684 296.039C470.684 280.134 468.896 264.647 465.511 249.767C455.2 248.192 444.64 247.375 433.89 247.375C319.176 247.375 226.182 340.369 226.182 455.082C226.182 470.987 227.97 486.475 231.355 501.354C241.666 502.929 252.226 503.746 262.976 503.746Z" fill="#079EF5"/>
<rect x="126.707" y="503.744" width="124.167" height="213.642" rx="60" transform="rotate(36.1535 126.707 503.744)" fill="#2051CF"/>
<rect x="591.973" y="0.5" width="124.173" height="213.642" rx="60" transform="rotate(36.1535 591.973 0.5)" fill="#46D5F1"/>
<path d="M852.463 504V259H933.663C950.58 259 966.388 262.208 981.088 268.625C995.905 274.925 1008.91 283.733 1020.11 295.05C1031.43 306.25 1040.24 319.258 1046.54 334.075C1052.95 348.775 1056.16 364.583 1056.16 381.5C1056.16 398.417 1052.95 414.283 1046.54 429.1C1040.24 443.8 1031.43 456.808 1020.11 468.125C1008.91 479.325 995.905 488.133 981.088 494.55C966.388 500.85 950.58 504 933.663 504H852.463ZM895.163 461.3H933.663C944.513 461.3 954.721 459.258 964.288 455.175C973.971 450.975 982.488 445.258 989.838 438.025C997.188 430.675 1002.96 422.217 1007.16 412.65C1011.36 402.967 1013.46 392.583 1013.46 381.5C1013.46 370.417 1011.36 360.092 1007.16 350.525C1002.96 340.958 997.188 332.5 989.838 325.15C982.488 317.8 974.03 312.083 964.463 308C954.896 303.8 944.63 301.7 933.663 301.7H895.163V461.3ZM1214.1 329H1256.8V504H1214.1L1212.18 482.3C1207.39 490.117 1201.03 496.475 1193.1 501.375C1185.28 506.158 1176.01 508.55 1165.28 508.55C1152.33 508.55 1140.19 506.1 1128.88 501.2C1117.56 496.3 1107.58 489.533 1098.95 480.9C1090.43 472.267 1083.73 462.292 1078.83 450.975C1074.04 439.658 1071.65 427.525 1071.65 414.575C1071.65 402.092 1073.93 390.367 1078.48 379.4C1083.14 368.433 1089.62 358.808 1097.9 350.525C1106.18 342.242 1115.75 335.767 1126.6 331.1C1137.45 326.433 1149.12 324.1 1161.6 324.1C1173.15 324.1 1183.48 326.667 1192.58 331.8C1201.79 336.933 1209.61 343.467 1216.03 351.4L1214.1 329ZM1164.23 467.425C1173.33 467.425 1181.38 465.15 1188.38 460.6C1195.38 456.05 1200.86 449.925 1204.83 442.225C1208.79 434.408 1210.78 425.833 1210.78 416.5C1210.78 407.05 1208.79 398.475 1204.83 390.775C1200.86 382.958 1195.32 376.775 1188.2 372.225C1181.2 367.675 1173.21 365.4 1164.23 365.4C1155.24 365.4 1147.02 367.733 1139.55 372.4C1132.2 376.95 1126.31 383.075 1121.88 390.775C1117.56 398.475 1115.4 407.05 1115.4 416.5C1115.4 425.95 1117.62 434.525 1122.05 442.225C1126.48 449.925 1132.38 456.05 1139.73 460.6C1147.19 465.15 1155.36 467.425 1164.23 467.425ZM1343.3 507.15C1334.2 506.567 1325.39 504.758 1316.87 501.725C1308.47 498.575 1301.01 494.317 1294.47 488.95C1287.94 483.583 1282.92 477.167 1279.42 469.7L1315.47 454.3C1316.87 456.633 1319.15 459.142 1322.3 461.825C1325.45 464.392 1329.18 466.55 1333.5 468.3C1337.93 470.05 1342.77 470.925 1348.02 470.925C1352.46 470.925 1356.66 470.342 1360.62 469.175C1364.71 467.892 1367.97 465.967 1370.42 463.4C1372.99 460.833 1374.27 457.508 1374.27 453.425C1374.27 449.108 1372.76 445.783 1369.72 443.45C1366.81 441 1363.07 439.192 1358.52 438.025C1354.09 436.742 1349.77 435.575 1345.57 434.525C1334.49 432.308 1324.16 428.867 1314.6 424.2C1305.15 419.533 1297.51 413.525 1291.67 406.175C1285.96 398.708 1283.1 389.725 1283.1 379.225C1283.1 367.675 1286.13 357.7 1292.2 349.3C1298.38 340.9 1306.37 334.425 1316.17 329.875C1326.09 325.325 1336.76 323.05 1348.2 323.05C1362.08 323.05 1374.8 325.967 1386.35 331.8C1398.01 337.517 1407.23 345.625 1414 356.125L1380.22 376.075C1378.59 373.275 1376.31 370.708 1373.4 368.375C1370.48 365.925 1367.16 363.942 1363.42 362.425C1359.69 360.792 1355.78 359.858 1351.7 359.625C1346.45 359.392 1341.66 359.858 1337.35 361.025C1333.03 362.192 1329.53 364.175 1326.85 366.975C1324.28 369.775 1323 373.508 1323 378.175C1323 382.608 1324.75 385.933 1328.25 388.15C1331.75 390.25 1335.95 391.883 1340.85 393.05C1345.86 394.217 1350.65 395.5 1355.2 396.9C1365.46 400.283 1375.09 404.425 1384.07 409.325C1393.17 414.225 1400.46 420.233 1405.95 427.35C1411.43 434.467 1414.06 442.983 1413.82 452.9C1413.82 464.217 1410.44 474.133 1403.67 482.65C1396.91 491.05 1388.16 497.467 1377.42 501.9C1366.81 506.333 1355.43 508.083 1343.3 507.15ZM1486.47 591.5H1443.77V329H1486.47V351.225C1492.19 343.292 1499.19 336.875 1507.47 331.975C1515.87 326.958 1525.67 324.45 1536.87 324.45C1549.7 324.45 1561.66 326.842 1572.75 331.625C1583.83 336.408 1593.57 343.058 1601.97 351.575C1610.49 359.975 1617.08 369.717 1621.75 380.8C1626.53 391.883 1628.92 403.783 1628.92 416.5C1628.92 429.217 1626.53 441.175 1621.75 452.375C1617.08 463.575 1610.49 473.433 1601.97 481.95C1593.57 490.35 1583.83 496.942 1572.75 501.725C1561.66 506.508 1549.7 508.9 1536.87 508.9C1525.67 508.9 1515.87 506.45 1507.47 501.55C1499.19 496.533 1492.19 490.058 1486.47 482.125V591.5ZM1536.35 365.575C1527.48 365.575 1519.55 367.908 1512.55 372.575C1505.55 377.125 1500.06 383.25 1496.1 390.95C1492.13 398.65 1490.15 407.167 1490.15 416.5C1490.15 425.833 1492.13 434.408 1496.1 442.225C1500.06 449.925 1505.55 456.108 1512.55 460.775C1519.55 465.325 1527.48 467.6 1536.35 467.6C1545.33 467.6 1553.55 465.325 1561.02 460.775C1568.49 456.225 1574.44 450.1 1578.87 442.4C1583.3 434.583 1585.52 425.95 1585.52 416.5C1585.52 407.167 1583.3 398.65 1578.87 390.95C1574.44 383.25 1568.49 377.125 1561.02 372.575C1553.67 367.908 1545.45 365.575 1536.35 365.575ZM1652.61 329H1695.31V504H1652.61V329ZM1674.31 306.425C1668.01 306.425 1662.7 304.383 1658.38 300.3C1654.07 296.1 1651.91 290.85 1651.91 284.55C1651.91 278.367 1654.07 273.175 1658.38 268.975C1662.7 264.775 1667.95 262.675 1674.13 262.675C1680.32 262.675 1685.51 264.775 1689.71 268.975C1694.03 273.175 1696.18 278.367 1696.18 284.55C1696.18 290.85 1694.08 296.1 1689.88 300.3C1685.68 304.383 1680.49 306.425 1674.31 306.425ZM1736.18 504L1736.01 329H1778.71L1778.88 344.575C1784.83 338.275 1791.95 333.317 1800.23 329.7C1808.52 325.967 1817.44 324.1 1827.01 324.1C1833.42 324.1 1839.84 325.033 1846.26 326.9L1829.46 369.95C1825.02 368.2 1820.59 367.325 1816.16 367.325C1809.27 367.325 1802.97 369.017 1797.26 372.4C1791.66 375.667 1787.17 380.158 1783.78 385.875C1780.52 391.475 1778.88 397.717 1778.88 404.6V504H1736.18ZM1934.69 508.55C1918.59 508.55 1903.89 504.408 1890.59 496.125C1877.4 487.842 1866.85 476.7 1858.91 462.7C1851.1 448.7 1847.19 433.242 1847.19 416.325C1847.19 403.608 1849.46 391.708 1854.01 380.625C1858.56 369.425 1864.8 359.625 1872.74 351.225C1880.79 342.708 1890.12 336.058 1900.74 331.275C1911.35 326.492 1922.67 324.1 1934.69 324.1C1948.34 324.1 1960.82 327.017 1972.14 332.85C1983.57 338.567 1993.25 346.442 2001.19 356.475C2009.12 366.508 2014.9 377.942 2018.51 390.775C2022.13 403.608 2022.95 417.025 2020.96 431.025H1893.04C1894.67 437.558 1897.35 443.45 1901.09 448.7C1904.82 453.833 1909.55 457.975 1915.26 461.125C1920.98 464.158 1927.45 465.733 1934.69 465.85C1942.15 465.967 1948.92 464.217 1954.99 460.6C1961.17 456.867 1966.3 451.85 1970.39 445.55L2013.96 455.7C2006.85 471.217 1996.23 483.933 1982.11 493.85C1968 503.65 1952.19 508.55 1934.69 508.55ZM1891.64 399H1977.74C1976.45 392 1973.71 385.7 1969.51 380.1C1965.43 374.383 1960.35 369.833 1954.29 366.45C1948.22 363.067 1941.69 361.375 1934.69 361.375C1927.69 361.375 1921.21 363.067 1915.26 366.45C1909.31 369.717 1904.24 374.208 1900.04 379.925C1895.95 385.525 1893.15 391.883 1891.64 399Z" fill="white"/>
</svg>
