<svg width="94" height="95" viewBox="0 0 94 95" fill="none" xmlns="http://www.w3.org/2000/svg">
<rect y="0.5" width="94" height="94" rx="47" fill="white"/>
<circle cx="47" cy="47.5" r="47" fill="white"/>
<path fill-rule="evenodd" clip-rule="evenodd" d="M53.7896 38.4746C53.1288 38.3736 52.4521 38.3213 51.7631 38.3213C44.4116 38.3213 38.4521 44.2809 38.4521 51.6323C38.4521 52.6516 38.5666 53.6441 38.7836 54.5977C32.3939 53.6217 27.499 48.1024 27.499 41.4399C27.499 34.0885 33.4586 28.1289 40.81 28.1289C47.1423 28.1289 52.4417 32.5505 53.7896 38.4746Z" fill="#46D5F1"/>
<path fill-rule="evenodd" clip-rule="evenodd" d="M40.7827 54.5967C48.1341 54.5967 54.0937 48.6371 54.0937 41.2857C54.0937 40.2664 53.9791 39.2739 53.7622 38.3203C60.1519 39.2963 65.0468 44.8155 65.0468 51.4781C65.0468 58.8295 59.0872 64.7891 51.7357 64.7891C45.4035 64.7891 40.104 60.3675 38.7562 54.4434C39.417 54.5444 40.0937 54.5967 40.7827 54.5967Z" fill="#4E46E5"/>
<path fill-rule="evenodd" clip-rule="evenodd" d="M40.8101 54.7519C48.1616 54.7519 54.1211 48.7924 54.1211 41.4409C54.1211 40.4216 54.0066 39.4291 53.7896 38.4755C53.1289 38.3746 52.4521 38.3223 51.7632 38.3223C44.4117 38.3223 38.4521 44.2818 38.4521 51.6333C38.4521 52.6526 38.5667 53.6451 38.7837 54.5986C39.4444 54.6996 40.1211 54.7519 40.8101 54.7519Z" fill="#079EF5"/>
<rect x="32.0771" y="54.75" width="7.95732" height="13.6913" rx="3.84513" transform="rotate(36.1535 32.0771 54.75)" fill="#524AEF"/>
<rect x="61.894" y="22.5" width="7.95771" height="13.6913" rx="3.84513" transform="rotate(36.1535 61.894 22.5)" fill="#46D5F1"/>
</svg>
